<?xml version="1.0" encoding="UTF-8"?>
<svg xmlns="http://www.w3.org/2000/svg" version="1.1" viewBox="0 0 5592.94 5592.94">
  <defs>
    <style>
      .cls-1 {
        fill: #f5f5f5;
      }
    </style>
  </defs>
  <!-- Generator: Adobe Illustrator 28.7.3, SVG Export Plug-In . SVG Version: 1.2.0 Build 164)  -->
  <g>
    <g id="Layer_1">
      <g>
        <polygon class="cls-1" points="2662.08 2205.43 2662.08 2562.7 2861.19 2760.13 2927.18 2694.15 2927.18 2074 2861.19 2008 2662.08 2205.43"/>
        <polygon class="cls-1" points="849.77 2464.72 850.36 2763.53 949.51 2763.54 1605.82 2107.04 1605.82 2007.87 1307.94 2006.62 849.77 2464.72"/>
        <polygon class="cls-1" points="2430.42 2464.66 2429.77 2763.59 2330.64 2763.59 1674.38 2107.12 1674.38 2007.77 1972.23 2006.69 2430.42 2464.66"/>
        <polygon class="cls-1" points="949.51 2829.39 850.36 2829.4 849.77 3128.21 1307.94 3586.31 1605.82 3585.05 1605.82 3485.9 949.51 2829.39"/>
        <polygon class="cls-1" points="2430.42 3128.25 1972.23 3586.23 1674.38 3585.16 1674.38 3485.81 2330.64 2829.32 2429.77 2829.32 2430.42 3128.25"/>
        <polygon class="cls-1" points="2662.08 3031.09 2662.08 3388.36 2861.19 3585.79 2927.18 3519.79 2927.18 2899.64 2861.19 2833.66 2662.08 3031.09"/>
        <g>
          <polygon class="cls-1" points="3919.88 2007.77 3919.88 2107.12 3263.62 2763.59 3164.48 2763.59 3163.84 2464.66 3622.03 2006.69 3919.88 2007.77"/>
          <polygon class="cls-1" points="4743.16 2464.66 4742.52 2763.59 4643.38 2763.59 3987.12 2107.12 3987.12 2007.77 4284.97 2006.69 4743.16 2464.66"/>
          <polygon class="cls-1" points="4742.52 2829.32 4742.52 3519.85 4676.57 3585.8 4477.43 3388.39 4477.43 3031.06 4680.01 2829.32 4742.52 2829.32"/>
          <polygon class="cls-1" points="3429.57 3031.7 3429.57 3388.82 3230.43 3586.23 3164.48 3520.28 3164.48 2829.32 3220.51 2829.32 3429.57 3031.7"/>
        </g>
        <polygon class="cls-1" points="3518.49 3021.37 4387.37 3021.51 4587.18 2827.73 4521.18 2763.54 3383.75 2763.54 3317.77 2827.73 3518.49 3021.37"/>
      </g>
    </g>
  </g>
</svg>